HIERARCHY
ROOT Hips
{
  OFFSET 40.9192 92.6879 18.85
  CHANNELS 6 Xposition Yposition Zposition Zrotation Xrotation Yrotation
  JOINT LeftUpLeg
  {
    OFFSET 8.64259 1.95398 -2.38835
    CHANNELS 3 Zrotation Xrotation Yrotation
    JOINT LeftLeg
    {
      OFFSET 43.7702 0 0
      CHANNELS 3 Zrotation Xrotation Yrotation
      JOINT LeftFoot
      {
        OFFSET 40.6238 0 0
        CHANNELS 3 Zrotation Xrotation Yrotation
        JOINT LeftToeBase
        {
          OFFSET 12.7242 0 0
          CHANNELS 3 Zrotation Xrotation Yrotation
          End Site
          {
            OFFSET 0 0 0
          }
        }
      }
    }
  }
  JOINT RightUpLeg
  {
    OFFSET -8.2249 1.95398 -2.59336
    CHANNELS 3 Zrotation Xrotation Yrotation
    JOINT RightLeg
    {
      OFFSET 43.5653 0 0
      CHANNELS 3 Zrotation Xrotation Yrotation
      JOINT RightFoot
      {
        OFFSET 40.6238 0 0
        CHANNELS 3 Zrotation Xrotation Yrotation
        JOINT RightToeBase
        {
          OFFSET 12.7242 0 0
          CHANNELS 3 Zrotation Xrotation Yrotation
          End Site
          {
            OFFSET 0 0 0
          }
        }
      }
    }
  }
  JOINT Spine
  {
    OFFSET 0.165834 0.87714 6.61349
    CHANNELS 3 Zrotation Xrotation Yrotation
    JOINT Spine1
    {
      OFFSET 7.38963 1.71661e-005 0
      CHANNELS 3 Zrotation Xrotation Yrotation
      JOINT Spine2
      {
        OFFSET 11.9445 1.14441e-005 0
        CHANNELS 3 Zrotation Xrotation Yrotation
        JOINT Spine3
        {
          OFFSET 14.7254 4.19617e-005 0
          CHANNELS 3 Zrotation Xrotation Yrotation
          JOINT Spine4
          {
            OFFSET 10.9679 0 0
            CHANNELS 3 Zrotation Xrotation Yrotation
            JOINT RightShoulder
            {
              OFFSET 2.46616 -1.6653 3.69651
              CHANNELS 3 Zrotation Xrotation Yrotation
              JOINT RightArm
              {
                OFFSET 13.0012 0 0
                CHANNELS 3 Zrotation Xrotation Yrotation
                JOINT RightForeArm
                {
                  OFFSET 28.7848 1.52588e-005 0
                  CHANNELS 3 Zrotation Xrotation Yrotation
                  JOINT RightHand
                  {
                    OFFSET 26.5688 1.52588e-005 0
                    CHANNELS 3 Zrotation Xrotation Yrotation
                    End Site
                    {
                      OFFSET 0 0 0
                    }
                  }
                }
              }
            }
            JOINT LeftShoulder
            {
              OFFSET 2.38034 -1.29275 -3.7523
              CHANNELS 3 Zrotation Xrotation Yrotation
              JOINT LeftArm
              {
                OFFSET 16.3182 6.10351e-005 0
                CHANNELS 3 Zrotation Xrotation Yrotation
                JOINT LeftForeArm
                {
                  OFFSET 27.0901 0 0
                  CHANNELS 3 Zrotation Xrotation Yrotation
                  JOINT LeftHand
                  {
                    OFFSET 24.5451 1.52588e-005 0
                    CHANNELS 3 Zrotation Xrotation Yrotation
                    End Site
                    {
                      OFFSET 0 0 0
                    }
                  }
                }
              }
            }
            JOINT Neck
            {
              OFFSET 5.0226 -0.0266342 0
              CHANNELS 3 Zrotation Xrotation Yrotation
              JOINT Head
              {
                OFFSET 6.69363 2.86102e-005 0
                CHANNELS 3 Zrotation Xrotation Yrotation
                End Site
                {
                  OFFSET 0 0 0
                }
              }
            }
          }
        }
      }
    }
  }
}
MOTION
Frames:	6
Frame Time:	0.0416667
-55.9866 47.7502 7.89713 -154.512 -74.961 -142.049 149.746 79.0135 133.011 -120.002 -7.13766 3.85564 63.8256 19.7841 18.4072 45.816 14.4101 7.57424 125.33 63.1596 150.112 -118.58 15.6285 -3.95954 77.6992 -19.7464 -9.98715 42.8608 0.0367479 -11.3526 1.45514 12.5268 -90.58 1.82888 2.68214 -1.06469 -9.83983 2.63268 -1.18177 -32.3969 2.87803 -0.208777 -12.3843 2.87803 -0.208769 86.6176 -33.6107 -111.761 2.21404 -1.5077 -42.2921 23.6945 4.74988 -48.4664 -18.3648 0.0291446 -5.59184 -103.286 -38.0335 53.7364 19.2537 6.63589 -27.1298 -25.872 -18.3519 -52.9592 19.2419 -0.378186 -5.8767 -0.789666 1.73512 1.52562 -5.04064 1.56119 1.30919 
-55.9417 48.8891 7.68965 -165.843 -74.7562 -156.032 168.414 77.3141 111.403 -117.527 -8.10554 3.93102 63.5179 19.8605 17.5874 45.2382 13.5353 5.00518 130.787 64.007 141.155 -117.908 16.028 -3.82781 77.3347 -18.9856 -9.74121 43.5545 0.141429 -9.19129 0.992609 12.6889 -90.4241 1.50027 1.81949 -0.773509 -10.1697 1.78369 -0.852857 -32.7148 1.96781 -0.19072 -12.7022 1.96782 -0.190716 86.7472 -33.6333 -111.512 2.94401 -1.87827 -41.9857 23.1495 4.82377 -49.6673 -18.5854 -0.151548 -4.34836 -102.758 -38.0464 54.586 18.3363 6.328 -27.8001 -24.6166 -17.573 -52.8764 17.66 -0.290976 -5.52672 -0.7782 1.79507 1.34674 -5.5616 1.63124 1.79957 
-55.9658 50.2867 7.94768 -172.999 -74.8435 -165.38 177.458 74.8455 100.298 -115.209 -7.9693 3.91034 62.8015 19.0453 17.967 47.2189 14.9603 3.50066 137.659 64.3785 132.208 -117.05 15.3477 -3.54746 78.8698 -18.7981 -9.38975 43.1153 0.167548 -9.00456 0.617559 12.6936 -90.2592 1.48819 1.13385 -0.471916 -10.1824 1.11198 -0.521381 -32.7214 1.22325 -0.10928 -12.7088 1.22325 -0.109288 86.2664 -34.093 -112.201 2.70878 -2.01955 -41.0103 23.8913 4.51881 -50.1802 -17.6289 -0.119034 -4.43509 -102.46 -38.4081 55.2471 18.2454 6.38627 -27.5688 -25.7977 -18.0554 -53.779 19.407 -0.272441 -5.3146 -0.849463 1.91551 1.48457 -5.98249 1.73294 1.57483 
-55.9907 52.2451 8.0893 -176.632 -75.2499 -170.876 -176.017 72.3855 92.5137 -112.304 -8.07168 3.92171 63.4356 19.1133 17.0333 45.395 13.5498 4.16529 144.233 64.2779 124.513 -114.935 16.0135 -3.29425 79.6388 -18.5309 -8.05799 43.2002 0.161982 -9.05445 0.38527 12.5853 -90.1158 1.70359 0.724784 -0.206662 -9.96718 0.714989 -0.238366 -32.504 0.753381 0.020735 -12.4913 0.753391 0.0207304 86.055 -34.6597 -112.341 2.5227 -2.46212 -39.9903 24.196 4.21877 -51.3155 -19.208 -0.108133 -4.68947 -102.637 -38.6124 55.0685 18.0289 6.61462 -26.8242 -25.7216 -18.0868 -54.0917 17.1677 -0.438771 -6.39494 -1.67083 1.93695 1.4075 -5.79952 1.77432 1.85348 
-56.0725 54.4494 8.39721 -177.013 -76.1969 -172.781 -172.401 70.0523 88.8088 -109.045 -7.83235 3.88419 63.0825 18.0143 16.6934 46.9927 14.6364 2.63995 150.07 63.788 118.324 -112.45 15.4365 -3.03791 80.4778 -18.1828 -7.52919 42.6407 0.182595 -8.97914 0.269175 12.4385 -89.9825 1.99664 0.544234 0.0464276 -9.67418 0.545749 0.0224237 -32.2101 0.505117 0.207859 -12.1975 0.505123 0.207848 86.3671 -35.0915 -111.592 2.31307 -2.99251 -39.9903 25.7356 5.02718 -52.0178 -18.7343 -0.0250643 -5.22816 -102.417 -38.6386 55.4321 17.7984 6.69927 -26.9121 -25.6016 -17.7849 -54.4749 16.9734 -0.453376 -6.49845 -1.42391 1.87462 1.28861 -6.56313 1.70925 1.82483 
-56.2346 56.8641 9.15964 -172.996 -78.1059 -170.064 -169.564 68.2261 86.5232 -105.895 -7.48708 3.77627 64.0816 17.8624 16.4396 46.8534 14.4979 2.48247 155.184 63.4768 113.989 -109.559 15.6566 -2.75005 81.2299 -17.9188 -7.2864 42.4185 0.242495 -8.0084 0.228435 12.1262 -89.8185 2.62054 0.527335 0.361953 -9.05035 0.542756 0.338388 -31.5856 0.394174 0.503704 -11.573 0.39418 0.503709 86.301 -34.9746 -111.761 3.39006 -3.56573 -38.898 25.6488 5.02818 -53.1169 -18.5598 -0.0374187 -5.11996 -102.182 -38.6795 55.827 16.5222 6.79348 -26.2155 -26.1823 -17.8863 -55.6357 18.5382 -0.35516 -5.80098 -1.65914 1.98255 1.28961 -7.1133 1.81306 1.74353 
